<?xml version="1.0" encoding="utf-8"?>
<!-- Generator: Adobe Illustrator 25.2.3, SVG Export Plug-In . SVG Version: 6.00 Build 0)  -->
<svg version="1.1" id="Calque_1" xmlns="http://www.w3.org/2000/svg" xmlns:xlink="http://www.w3.org/1999/xlink" x="0px" y="0px"
	 viewBox="0 0 100 100" style="enable-background:new 0 0 100 100;" xml:space="preserve">
<style type="text/css">
	.st0{fill:none;}
	.st1{fill:#1E6749;}
	.st2{fill:#0ED9B4;}
	.st3{fill:#F44747;}
	.st4{fill:#CD41FF;}
	.st5{fill:#F7B000;}
</style>
<rect class="st0" width="99.3" height="100"/>
<path class="st1" d="M62.5,26.3H47.8l-11,11.1v15.3l1.6,1.6L0,92.6l3.7,3.7l3.7,3.7l38.3-38.4l2.1,1.6H63l10.5-11.1V37.4L62.5,26.3z
	 M63,47.9l-4.7,4.7H52l-4.7-4.7v-6.3l4.7-4.7h6.3l4.7,4.7V47.9z"/>
<path class="st2" d="M55.2,21.1c-3.2,0-5.3-2.1-5.3-5.3V5.3C49.9,2.1,52,0,55.2,0c3.2,0,5.3,2.1,5.3,5.3v10.5
	C60.4,18.9,58.3,21.1,55.2,21.1z"/>
<path class="st3" d="M94.5,50H84c-3.2,0-5.3-2.1-5.3-5.3c0-3.2,2.1-5.3,5.3-5.3h10.5c3.2,0,5.3,2.1,5.3,5.3
	C99.8,47.9,97.7,50,94.5,50z"/>
<path class="st3" d="M26.3,50H15.8c-3.2,0-5.3-2.1-5.3-5.3c0-3.2,2.1-5.3,5.3-5.3h10.5c3.2,0,5.3,2.1,5.3,5.3
	C31.5,47.9,29.4,50,26.3,50z"/>
<path class="st4" d="M84,78.9c-1.6,0-2.6-0.5-3.7-1.6L72,68.9c-2.1-2.1-2.1-5.3,0-7.4c2.1-2.1,5.3-2.1,7.4,0l8.4,8.4
	c2.1,2.1,2.1,5.3,0,7.4C86.7,78.4,85.6,78.9,84,78.9z"/>
<path class="st4" d="M34.7,29.5c-1.6,0-2.6-0.5-3.7-1.6l-8.4-8.4c-2.1-2.1-2.1-5.3,0-7.4c2.1-2.1,5.3-2.1,7.4,0l8.4,8.4
	c2.1,2.1,2.1,5.3,0,7.4C37.3,28.9,36.2,29.5,34.7,29.5z"/>
<path class="st5" d="M75.6,29.5c-1.6,0-2.6-0.5-3.7-1.6c-2.1-2.1-2.1-5.3,0-7.4L85.6,6.8c2.1-2.1,5.3-2.1,7.4,0
	c2.1,2.1,2.1,5.3,0,7.4L79.3,27.9C78.3,28.9,76.7,29.5,75.6,29.5z"/>
<path class="st2" d="M55.2,89.5c-3.2,0-5.3-2.1-5.3-5.3V73.7c0-3.2,2.1-5.3,5.3-5.3c3.2,0,5.3,2.1,5.3,5.3v10.5
	C60.4,87.4,58.3,89.5,55.2,89.5z"/>
</svg>