<?xml version="1.0" encoding="utf-8"?>
<!-- Generator: Adobe Illustrator 24.0.1, SVG Export Plug-In . SVG Version: 6.00 Build 0)  -->
<svg version="1.1" id="Calque_1" xmlns="http://www.w3.org/2000/svg" xmlns:xlink="http://www.w3.org/1999/xlink" x="0px" y="0px"
	 viewBox="0 0 1366 1366" style="enable-background:new 0 0 1366 1366;" xml:space="preserve">
<style type="text/css">
	.st0{fill:none;}
	.st1{fill:#9C26B0;}
	.st2{fill:#03A8F5;}
	.st3{fill:#00BDD4;}
	.st4{fill:#FFC208;}
	.st5{fill:#FF5721;}
	.st6{fill:#FF4082;}
</style>
<g>
	<g>
		<g>
			<polygon class="st0" points="736.32,775.26 790.32,680.74 736.95,590.74 630.58,590.74 575.64,685.78 629.08,775.26 			"/>
		</g>
		<path class="st1" d="M701.96,531.75H424.82L250.14,829.22l159.69,332.7c-12.13,14.82-19.42,33.74-19.42,54.34
			c0,47.38,38.55,85.93,85.93,85.93c47.38,0,85.93-38.55,85.93-85.93s-38.55-85.93-85.93-85.93c-5.31,0-10.5,0.51-15.55,1.44
			L316.91,832.01l141.68-241.26h103.85h68.14h106.37L701.96,531.75z M503.29,1216.25c0,14.85-12.09,26.94-26.94,26.94
			s-26.94-12.09-26.94-26.94s12.08-26.94,26.94-26.94S503.29,1201.4,503.29,1216.25z"/>
		<path class="st2" d="M1083.39,1057.17c-41.03-23.69-93.68-9.58-117.38,31.45c-2.66,4.6-4.81,9.35-6.53,14.19l-331.54-25.27
			l-138.1-243.33l51.96-89.89l33.84-58.54l54.94-95.04h-68.14L421.86,833.96l170.28,300.01l367.97,28.05
			c6.77,17.91,19.51,33.69,37.35,43.99c13.24,7.64,27.93,11.55,42.83,11.55c7.46,0,14.98-0.98,22.38-2.97
			c22.17-5.94,40.7-20.16,52.18-40.04C1138.53,1133.52,1124.42,1080.87,1083.39,1057.17z M1063.76,1145.06
			c-3.6,6.23-9.41,10.69-16.36,12.55c-6.94,1.85-14.21,0.9-20.44-2.69c-12.86-7.43-17.29-23.94-9.86-36.8
			c4.98-8.64,14.06-13.46,23.38-13.46c4.57,0,9.19,1.16,13.42,3.6c6.23,3.6,10.69,9.41,12.55,16.36
			C1068.31,1131.57,1067.35,1138.83,1063.76,1145.06z"/>
		<path class="st3" d="M1326.45,555.07c-11.48-19.88-30-34.1-52.18-40.04c-22.16-5.94-45.33-2.89-65.21,8.59
			c-41.03,23.69-55.14,76.35-31.45,117.38c2.66,4.6,5.68,8.85,9.01,12.76L998.99,928.24l-279.78-2.07l-54.9-91.91l-35.23-58.99
			l-53.44-89.48l-33.84,58.54L685,984.9l344.96,2.55l208.27-304.64c4.6,0.75,9.26,1.14,13.95,1.14c14.56,0,29.32-3.7,42.82-11.5
			c19.87-11.48,34.09-30.01,40.04-52.18C1340.98,598.11,1337.93,574.95,1326.45,555.07z M1278.06,605.01
			c-1.87,6.95-6.32,12.76-12.55,16.36c-12.85,7.43-29.37,3.01-36.8-9.86c-7.43-12.86-3.01-29.37,9.86-36.8
			c6.23-3.6,13.49-4.55,20.45-2.69c6.95,1.86,12.75,6.32,16.36,12.56C1278.96,590.8,1279.92,598.06,1278.06,605.01z"/>
		<path class="st4" d="M957.41,204.09c12.13-14.82,19.42-33.74,19.42-54.34c0-47.38-38.55-85.93-85.93-85.93
			s-85.93,38.55-85.93,85.93c0,47.38,38.55,85.93,85.93,85.93c5.31,0,10.5-0.51,15.55-1.44l143.89,299.75L908.65,775.26H804.29
			h-67.97H629.08l35.23,58.99h278.11l174.68-297.47L957.41,204.09z M863.96,149.75c0-14.85,12.09-26.94,26.94-26.94
			s26.94,12.08,26.94,26.94c0,14.85-12.09,26.94-26.94,26.94S863.96,164.6,863.96,149.75z"/>
		<path class="st5" d="M773.8,230.82l-367.97-28.05c-6.77-17.91-19.51-33.69-37.35-43.99c-41.04-23.69-93.69-9.58-117.38,31.45
			s-9.58,93.69,31.45,117.38c13.24,7.64,27.93,11.55,42.82,11.55c7.47,0,14.98-0.98,22.38-2.96c22.17-5.94,40.7-20.16,52.18-40.04
			c2.66-4.6,4.81-9.35,6.53-14.19l331.54,25.27l138.1,243.33l-52.09,91.18l-33.7,58.98l-54,94.52h67.97l53.62-93.76l0.7-1.23
			l85.46-149.43L773.8,230.82z M348.85,246.67c-3.6,6.23-9.41,10.69-16.36,12.55c-6.95,1.86-14.21,0.9-20.44-2.69
			c-12.86-7.43-17.29-23.94-9.86-36.8c7.43-12.87,23.93-17.29,36.8-9.86C351.85,217.3,356.28,233.81,348.85,246.67z"/>
	</g>
	<path class="st6" d="M680.95,379.88l-344.96-2.55l-208.24,304.6c-19.54-3.22-39.42,0.37-56.8,10.4
		c-41.03,23.69-55.14,76.34-31.45,117.38c15.9,27.54,44.84,42.94,74.56,42.94c14.57,0,29.32-3.7,42.82-11.49
		c41.03-23.69,55.14-76.34,31.45-117.38c-2.64-4.57-5.66-8.82-9.01-12.76l187.63-274.46l279.78,2.06l55.23,93.13l34.98,58.99
		l53.37,90l33.7-58.98L680.95,379.88z M127.38,790.08c-12.86,7.41-29.37,3-36.8-9.86c-7.43-12.86-3-29.37,9.87-36.8
		c4.15-2.4,8.76-3.62,13.43-3.62c2.34,0,4.69,0.31,7.01,0.93c6.95,1.87,12.76,6.33,16.36,12.55
		C144.67,766.14,140.24,782.66,127.38,790.08z"/>
</g>
</svg>
